<?xml version="1.0" standalone="no"?>
<!DOCTYPE svg PUBLIC "-//W3C//DTD SVG 20010904//EN"
 "http://www.w3.org/TR/2001/REC-SVG-20010904/DTD/svg10.dtd">
<svg version="1.0" xmlns="http://www.w3.org/2000/svg"
 width="240.000000pt" height="240.000000pt" viewBox="0 0 240.000000 240.000000"
 preserveAspectRatio="xMidYMid meet">
<metadata>
Created by potrace 1.11, written by Peter Selinger 2001-2013
</metadata>
<g transform="translate(0.000000,240.000000) scale(0.100000,-0.100000)"
fill="#000000" stroke="none">
<path d="M1055 2324 c-262 -33 -475 -141 -667 -335 -104 -106 -198 -249 -244
-371 -23 -64 -62 -211 -70 -266 -8 -58 -9 -229 -1 -297 14 -116 101 -381 129
-393 4 -2 8 -8 8 -13 0 -6 23 -45 52 -87 51 -76 178 -210 251 -266 158 -121
345 -196 552 -222 117 -15 301 -5 397 22 29 8 64 17 78 20 50 11 275 119 300
144 3 3 23 18 45 34 110 81 258 257 324 386 165 322 167 713 4 1033 -78 155
-241 338 -382 431 -234 153 -502 215 -776 180z"/>
</g>
</svg>
