<svg width="0" height="0" class="hidden">
  <symbol  xmlns="http://www.w3.org/2000/svg" viewBox="0 0 136 40" id="slack">
    <path d="M24.981 3.902c-.54-1.772-2.433-2.726-4.19-2.18-1.757.545-2.704 2.452-2.163 4.224l8.651 26.846c.609 1.636 2.366 2.59 4.055 2.113 1.758-.545 2.84-2.385 2.299-4.157 0-.068-8.652-26.846-8.652-26.846zM11.6 8.33c-.542-1.77-2.434-2.725-4.191-2.18-1.758.546-2.704 2.453-2.163 4.225l8.651 26.846c.608 1.636 2.366 2.59 4.055 2.113 1.757-.546 2.839-2.385 2.298-4.157 0-.068-8.65-26.846-8.65-26.846z" ></path>
    <path d="M35.93 26.183c1.758-.545 2.704-2.453 2.163-4.224-.54-1.772-2.433-2.726-4.19-2.18L7.206 28.431c-1.622.613-2.568 2.385-2.095 4.088.54 1.771 2.365 2.862 4.123 2.317.135 0 26.696-8.654 26.696-8.654z" ></path>
    <path d="M12.748 33.746c1.757-.545 3.988-1.294 6.353-2.112-.54-1.771-1.284-4.02-2.095-6.405l-6.353 2.112 2.095 6.405zm13.45-4.429c2.433-.817 4.663-1.499 6.353-2.112-.54-1.771-1.284-4.02-2.095-6.405l-6.353 2.112 2.095 6.405zm5.339-16.693c1.758-.545 2.704-2.453 2.163-4.225-.54-1.771-2.433-2.725-4.19-2.18L2.88 14.94c-1.622.614-2.568 2.385-2.095 4.09.54 1.84 2.366 2.93 4.123 2.316.068 0 26.63-8.721 26.63-8.721z" ></path>
    <path d="M8.423 20.187c1.757-.545 3.987-1.295 6.353-2.112-.811-2.453-1.487-4.702-2.095-6.405l-6.354 2.112 2.096 6.405zm13.382-4.361c2.433-.818 4.663-1.499 6.353-2.112-.811-2.453-1.487-4.702-2.095-6.405L19.709 9.42l2.096 6.405zm41.093-4.838c1.149.545 1.284.886.338 2.658-.947 1.84-1.15 1.907-2.366 1.43-1.487-.613-3.312-1.09-4.528-1.09-1.96 0-3.244.682-3.244 1.772 0 3.543 11.287 1.635 11.287 9.267 0 3.815-3.245 6.337-8.11 6.337-2.57 0-5.746-.886-7.908-1.976-1.082-.546-1.15-.886-.203-2.726.81-1.567 1.081-1.772 2.23-1.295 1.892.818 4.19 1.431 5.813 1.431 1.824 0 2.973-.75 2.973-1.84 0-3.474-11.49-1.84-11.49-9.198 0-3.884 3.245-6.541 8.043-6.541 2.298.204 5.205.885 7.165 1.771zm9.124-8.994V30.34c0 .408-.473.885-1.082.885h-2.973c-.676 0-1.082-.477-1.082-.886V1.995c0-1.43.406-1.499 2.569-1.499 2.433-.068 2.568.136 2.568 1.5z" ></path>
    <path fill-rule="evenodd" clip-rule="evenodd" d="M92.974 30.067V17.87c0-5.315-3.582-8.449-9.26-8.449-2.568 0-5.406.818-7.434 2.18-1.082.682-1.082 1.023 0 2.726 1.149 1.704 1.352 1.772 2.433 1.158 1.352-.817 3.041-1.362 4.46-1.362 2.975 0 4.732 1.362 4.732 3.611v1.43c-1.42-.612-3.177-.953-5.07-.953-5.068 0-8.38 2.726-8.38 6.814 0 3.816 2.974 6.405 7.367 6.405 2.298 0 4.596-.954 6.15-2.726L87.906 30c-.068.681.405 1.158 1.081 1.158h2.906c.609 0 1.082-.409 1.082-1.09zM82.43 27.34c-1.825 0-3.041-.954-3.041-2.384 0-1.772 1.825-3.135 4.528-3.135 1.284 0 2.771.205 3.92.682v1.907c-1.149 1.84-3.176 2.93-5.407 2.93z" ></path>
    <path d="M113.047 11.056c1.082.614 1.082.954-.067 2.794-1.082 1.704-1.284 1.84-2.501 1.227-.879-.477-2.366-.886-3.515-.886-3.717 0-6.15 2.453-6.15 6.2 0 3.884 2.433 6.474 6.15 6.474 1.285 0 2.907-.477 3.921-1.09 1.081-.614 1.284-.614 2.433 1.09 1.013 1.567 1.013 1.907.067 2.589-1.622 1.158-4.258 2.044-6.556 2.044-6.826 0-11.422-4.43-11.422-11.039s4.596-10.97 11.49-10.97c2.163-.068 4.596.614 6.15 1.567zM135.419 28.5c.878 1.09.54 1.499-1.622 2.248-2.163.818-2.501.75-3.245-.272l-6.15-8.245-2.771 2.657v5.383c0 .41-.473.886-1.082.886h-2.973c-.676 0-1.082-.477-1.082-.886V1.994c0-1.43.406-1.499 2.569-1.499 2.5 0 2.568.205 2.568 1.5v16.08l8.381-8.109c.946-.885 1.419-.817 3.109.273 1.824 1.158 1.96 1.499 1.081 2.385l-6.218 6.132 7.435 9.744z"></path>
  </symbol>
    <symbol  xmlns="http://www.w3.org/2000/svg" viewBox="0 0 119 37" id="airbnb">
    <path fill-rule="evenodd" clip-rule="evenodd" d="M33.527 24.776c.176.412.353.883.53 1.353a7.669 7.669 0 01.472 3.94c-.413 2.706-2.182 5.058-4.778 6.116-.943.412-1.946.588-3.008.588-.295 0-.649 0-.944-.058-1.238-.118-2.477-.53-3.716-1.235-1.474-.824-2.949-2.059-4.6-3.823-1.652 1.764-3.068 3-4.601 3.823-1.239.705-2.478 1.058-3.716 1.235-.148 0-.31.014-.472.03-.162.014-.325.029-.472.029-1.062 0-2.065-.177-3.008-.589C2.677 35.127.79 32.833.377 30.07c-.177-1.352 0-2.646.472-3.94.177-.53.354-.94.53-1.353.296-.646.59-1.293.826-1.881l.06-.06a539.912 539.912 0 018.14-16.642l.117-.236c.295-.529.59-1.117.885-1.705l.24-.38c.336-.536.688-1.097 1.117-1.62C14.003.841 15.654.018 17.483.018c1.77 0 3.48.823 4.66 2.293.59.647 1.002 1.353 1.356 2 .295.588.59 1.176.885 1.705l.118.235a359.953 359.953 0 018.14 16.643h.059c.236.589.53 1.236.826 1.882zm29.02-15.525a2.388 2.388 0 01-2.418 2.41 2.389 2.389 0 01-2.419-2.41 2.388 2.388 0 012.419-2.412c1.416.06 2.418 1.118 2.418 2.412zm-9.85 4.822v.588s-1.121-1.47-3.598-1.47c-4.011 0-7.138 3.058-7.138 7.292 0 4.176 3.127 7.293 7.138 7.293 2.477 0 3.598-1.53 3.598-1.53v.648c0 .294.236.529.53.529h3.009v-13.88h-3.008c-.354 0-.531.236-.531.53zm-3.009 10.35c1.357 0 2.478-.705 3.009-1.528v-4.94c-.531-.765-1.71-1.53-3.009-1.53-2.359 0-4.188 1.47-4.188 4 0 2.528 1.83 3.998 4.188 3.998zm8.671-10.88h3.54v13.821h-3.54v-13.82zm49.312 1.118s1.179-1.47 3.598-1.47c4.011 0 7.137 3.058 7.137 7.233 0 4.176-3.126 7.293-7.137 7.293-2.477 0-3.598-1.53-3.598-1.53v.648a.528.528 0 01-.531.529h-3.008V6.898h3.539v7.763zm3.008 9.704a3.697 3.697 0 01-3.008-1.53v-4.94c.531-.764 1.71-1.528 3.008-1.528 2.359 0 4.188 1.47 4.188 3.999s-1.829 3.999-4.188 3.999zm-8.376 3.058V19.19c0-2.353-.472-3.647-1.651-4.647-1.062-.882-2.36-1.352-3.894-1.352-1.356 0-2.713.412-3.774 1.47v-.588a.528.528 0 00-.531-.53H89.62v13.88h3.54v-9.645c.707-.823 1.828-1.353 2.89-1.353 1.946 0 2.713.883 2.713 3.176v7.822h3.539zM81.01 13.19c-2.419 0-3.599 1.47-3.599 1.47V6.898h-3.539v20.466h3.009c.294 0 .53-.235.53-.53v-.646s1.121 1.529 3.599 1.529c4.01 0 7.137-3.117 7.137-7.293.059-4.175-3.068-7.233-7.138-7.233zm-3.599 9.645a3.698 3.698 0 003.009 1.529c2.36 0 4.188-1.47 4.188-4 0-2.528-1.829-3.998-4.188-3.998-1.298 0-2.478.764-3.009 1.529v4.94zm-6.547-9.645c1.062 0 1.652.176 1.652.176v3.294s-2.95-1-4.778 1.117v9.645h-3.54v-13.88h3.009c.295 0 .53.236.53.53v.588c.59-.764 2.006-1.47 3.127-1.47zm-53.44 14.82c-2.006-2.529-3.303-4.881-3.716-6.822-.177-.823-.236-1.588-.118-2.235a3.206 3.206 0 01.59-1.529c.707-1 1.887-1.647 3.244-1.647 1.356 0 2.595.589 3.244 1.647.295.47.53.941.59 1.53.118.646.059 1.41-.118 2.234-.413 1.94-1.71 4.293-3.716 6.822zm11.384 6.057a5.296 5.296 0 003.362-4.293c.118-1 0-1.882-.177-2.823a8.283 8.283 0 00-.234-.591c-.076-.178-.157-.37-.238-.585-.147-.294-.28-.603-.413-.911-.133-.31-.265-.618-.413-.912v-.059a425.906 425.906 0 00-8.08-16.525l-.119-.235a46.047 46.047 0 00-.884-1.706c-.295-.588-.65-1.176-1.062-1.647a3.874 3.874 0 00-2.95-1.35c-1.12 0-2.182.47-2.949 1.352a9.789 9.789 0 00-1.061 1.647c-.295.588-.59 1.176-.885 1.706l-.118.235c-2.89 5.47-5.604 11.056-8.14 16.525l-.06.06a25.05 25.05 0 00-.825 1.822c-.177.412-.354.823-.472 1.176-.413 1.059-.472 1.941-.354 2.882.236 1.882 1.534 3.529 3.362 4.293.826.294 1.77.47 2.773.353a7.662 7.662 0 002.831-.941c1.298-.764 2.654-1.882 4.188-3.587-2.418-3-3.952-5.764-4.483-8.175-.295-1.117-.354-2.176-.177-3.117.177-.94.472-1.764 1.003-2.529 1.12-1.588 3.067-2.587 5.19-2.587 2.124 0 4.07.94 5.191 2.587.531.765.826 1.588 1.003 2.53.118.94.059 1.999-.177 3.116-.59 2.411-2.064 5.116-4.483 8.116 1.534 1.705 2.831 2.823 4.188 3.587 1.003.53 1.888.824 2.832.941 1.002.118 1.946 0 2.83-.353z" ></path>
  </symbol>
  <symbol  xmlns="http://www.w3.org/2000/svg" viewBox="0 0 119 32" id="fitbit">
    <path fill-rule="evenodd" clip-rule="evenodd" d="M17.51 2.972c0 1.223-1.067 2.272-2.312 2.272-1.245 0-2.312-1.049-2.312-2.272C12.886 1.749 13.953.7 15.198.7c1.245 0 2.312 1.049 2.312 2.272zm-2.312 4.136c-1.364 0-2.43 1.049-2.43 2.388 0 1.34 1.066 2.389 2.43 2.389 1.363 0 2.43-1.049 2.43-2.389 0-1.398-1.067-2.388-2.43-2.388zm-2.49 8.796c0-1.34 1.126-2.446 2.49-2.446 1.363 0 2.549 1.107 2.49 2.446 0 1.34-1.127 2.447-2.49 2.447-1.364 0-2.49-1.107-2.49-2.447zm2.49 4.02c-1.364 0-2.43 1.049-2.43 2.389 0 1.34 1.066 2.388 2.43 2.388 1.363 0 2.43-1.049 2.43-2.389 0-1.281-1.067-2.388-2.43-2.388zm-2.312 8.855c0-1.224 1.067-2.272 2.312-2.272 1.304 0 2.312 1.048 2.312 2.272 0 1.223-1.067 2.272-2.312 2.272-1.245 0-2.312-1.049-2.312-2.272zM21.6 6.817c-1.482 0-2.727 1.223-2.727 2.68 0 1.456 1.245 2.68 2.727 2.68 1.482 0 2.727-1.224 2.727-2.68 0-1.457-1.245-2.68-2.727-2.68zm-2.845 9.146c0-1.573 1.304-2.796 2.845-2.796 1.541 0 2.845 1.223 2.845 2.796 0 1.573-1.304 2.796-2.845 2.796-1.6 0-2.845-1.282-2.845-2.796zm2.845 3.67c-1.482 0-2.727 1.223-2.727 2.68 0 1.456 1.245 2.68 2.727 2.68 1.482 0 2.727-1.224 2.727-2.68 0-1.457-1.245-2.68-2.727-2.68zm3.438-3.729c0-1.747 1.482-3.087 3.142-3.087s3.023 1.34 3.142 3.087c0 1.748-1.363 3.088-3.142 3.088-1.778 0-3.142-1.456-3.142-3.088zM8.736 7.4c-1.126 0-2.074.932-2.074 2.04 0 1.106.948 2.038 2.074 2.038 1.127 0 2.075-.932 2.075-2.039 0-1.107-.89-2.039-2.075-2.039zm-2.193 8.505c0-1.223.948-2.155 2.193-2.155s2.194.932 2.194 2.155c0 1.224-.949 2.156-2.194 2.156s-2.193-.932-2.193-2.156zm2.193 4.311c-1.126 0-2.074.932-2.074 2.04 0 1.106.948 2.038 2.074 2.038 1.127 0 2.075-.932 2.075-2.039 0-1.107-.89-2.039-2.075-2.039zM.378 15.963c0-1.049.83-1.864 1.897-1.864 1.067 0 1.897.815 1.897 1.864 0 1.048-.83 1.864-1.897 1.864-1.067 0-1.897-.816-1.897-1.864z" ></path>
    <path d="M54.915 11.943c-.237 0-.414.233-.414.408v16.136c0 .233.237.408.414.408h1.957c.237 0 .415-.233.415-.408V12.351c0-.233-.237-.408-.415-.408h-1.957zm1.068-6.816c-1.068 0-1.897.816-1.897 1.864 0 1.049.83 1.864 1.897 1.864 1.067 0 1.896-.815 1.896-1.864 0-1.048-.889-1.864-1.896-1.864zm41.021 6.816c-.237 0-.415.233-.415.408v16.136c0 .233.237.408.415.408h1.956c.238 0 .415-.233.415-.408V12.351c0-.233-.237-.408-.415-.408h-1.956zm.949-6.816c-1.067 0-1.897.816-1.897 1.864 0 1.049.83 1.864 1.897 1.864 1.067 0 1.897-.815 1.897-1.864 0-1.048-.83-1.864-1.897-1.864z" ></path>
    <path fill-rule="evenodd" clip-rule="evenodd" d="M117.968 27.128a.367.367 0 01-.115.194c0 .117-.123.233-.37.175l.095.109a.103.103 0 01-.033.007h-.186l.433.525h.247l-.461-.532a.682.682 0 00.071-.036c.06-.033.132-.073.204-.073.124 0 .124-.116.124-.233 0-.048 0-.096-.009-.136zm-.856.485v-.699h.433c.123 0 .247 0 .308.117.073 0 .103.04.115.097.009-.04.009-.073.009-.097v-.117s0-.116-.124-.116c0 0-.123-.117-.247-.117h-.802v1.457h.247v-.525h.061z" ></path>
    <path fill-rule="evenodd" clip-rule="evenodd" d="M116.033 27.439c0-.7.652-1.34 1.364-1.34.77 0 1.363.582 1.363 1.34 0 .699-.652 1.34-1.363 1.34-.712 0-1.364-.641-1.364-1.34zm.119 0c0 .699.533 1.223 1.245 1.223.652 0 1.244-.524 1.244-1.223 0-.7-.533-1.224-1.244-1.224-.712 0-1.245.525-1.245 1.224z" ></path>
    <path d="M71.217 14.564c.238 0 .415-.233.415-.407v-1.923c0-.233-.237-.408-.415-.408H67.01V5.651c0-.233-.238-.407-.415-.407h-1.957c-.237 0-.415.233-.415.407v6.175h-2.074c-.238 0-.415.233-.415.408v1.923c0 .233.237.407.415.407h2.074v9.321c0 2.855 1.957 4.719 4.802 4.719H71.1c.237 0 .415-.233.415-.408v-1.922c0-.233-.237-.408-.415-.408h-1.78c-1.363 0-2.311-.932-2.311-2.389v-8.97h4.208v.057zm41.615 0c.237 0 .415-.233.415-.407v-1.923c0-.233-.237-.408-.415-.408h-4.209V5.651c0-.233-.237-.407-.415-.407h-1.956c-.237 0-.415.233-.415.407v6.175h-2.075c-.237 0-.415.233-.415.408v1.923c0 .233.237.407.415.407h2.075v9.321c0 2.855 1.956 4.719 4.802 4.719h2.074c.238 0 .415-.233.415-.408v-1.922c0-.233-.237-.408-.415-.408h-1.897c-1.363 0-2.311-.932-2.311-2.389v-8.97h4.268l.059.057zm-70.365.001v13.748c0 .233.237.407.415.407h1.956c.237 0 .415-.233.415-.407V14.565h4.624c.237 0 .415-.234.415-.408v-1.923c0-.233-.238-.408-.415-.408h-4.624V8.215c0-1.457 1.067-2.447 2.312-2.447h2.312c.237 0 .415-.233.415-.408V3.438c0-.233-.238-.408-.415-.408h-2.194c-2.904 0-5.216 2.388-5.216 5.126v3.67h-2.075c-.237 0-.415.233-.415.408v1.923c0 .233.237.408.415.408h2.075z" ></path>
    <path fill-rule="evenodd" clip-rule="evenodd" d="M84.318 11.302c2.312 0 4.506.932 6.047 2.564 1.541 1.63 2.371 3.902 2.371 6.407 0 6.234-4.327 9.03-8.477 9.03-4.209 0-8.477-2.738-8.477-9.03V3.321c0-.174.178-.407.415-.407h1.956c.178 0 .415.174.415.407v10.253c1.364-1.34 3.557-2.272 5.75-2.272zm-5.81 9.03c0 3.087 1.542 6.35 5.751 6.35 4.209 0 5.69-3.263 5.75-6.35 0-3.729-2.312-6.292-5.75-6.292s-5.75 2.505-5.75 6.292z" ></path>
  </symbol>
  <symbol  xmlns="http://www.w3.org/2000/svg" viewBox="0 0 119 40" id="google">
    <path d="M29.38 13.832H15.557v4.075h9.828c-.491 5.743-5.283 8.275-9.767 8.275-5.774 0-10.812-4.57-10.812-10.93C4.807 9.015 9.6 4.2 15.62 4.2c4.669 0 7.372 2.964 7.372 2.964L25.817 4.2S22.131.123 15.435.123C6.895.062.323 7.286.323 15.13c0 7.657 6.204 15.128 15.357 15.128 8.048 0 13.945-5.495 13.945-13.708 0-1.73-.246-2.717-.246-2.717z" ></path>
    <path fill-rule="evenodd" clip-rule="evenodd" d="M30.915 20.44c0-5.188 4.054-9.634 9.706-9.634 4.669 0 9.706 3.335 9.767 9.757 0 5.68-4.3 9.694-9.644 9.694-5.898 0-9.829-4.507-9.829-9.818zm15.173.123c0-3.582-2.641-5.867-5.406-5.867-3.133 0-5.528 2.47-5.467 5.805 0 3.458 2.396 5.928 5.467 5.928 2.826 0 5.406-2.285 5.406-5.866zm5.959-.123c0-5.188 4.054-9.634 9.706-9.634 4.669 0 9.706 3.335 9.767 9.757 0 5.68-4.3 9.694-9.644 9.694-5.898 0-9.829-4.507-9.829-9.818zm15.173.123c0-3.582-2.641-5.867-5.406-5.867-3.133 0-5.528 2.47-5.467 5.805 0 3.458 2.396 5.928 5.467 5.928 2.826 0 5.406-2.285 5.406-5.866zm5.959 0c0-5.126 4.054-9.695 9.276-9.695 2.273 0 3.993.864 5.099 2.223v-1.667h4.054v17.475c0 6.854-3.932 10.127-9.092 10.127-4.73 0-7.371-2.902-8.661-5.681l3.747-1.544c.553 1.235 2.027 3.458 4.976 3.458 3.071 0 5.098-2.038 5.098-5.372v-1.914c-1.167 1.296-2.58 2.346-5.344 2.346-4.423 0-9.153-3.952-9.153-9.756zm14.805.061c0-3.705-2.642-5.928-5.16-5.928-2.703 0-5.345 2.162-5.406 5.99 0 3.52 2.58 5.805 5.344 5.805 2.641 0 5.222-2.038 5.222-5.867zm12.777-.124c0-5.804 4.116-9.694 9.03-9.694 3.809 0 6.696 2.594 7.986 5.558l.676 1.605-12.962 5.434c.799 1.482 2.027 2.964 4.73 2.964 2.396 0 3.87-1.297 4.73-2.655l3.379 2.285c-1.474 1.976-4.054 4.26-8.109 4.26-4.853 0-9.46-3.643-9.46-9.756zm12.777-3.828c-.614-1.173-1.842-2.1-3.624-2.1-2.764 0-5.467 2.903-4.976 5.744l8.6-3.644z" ></path>
    <path d="M94.618 29.702h4.239V1.05h-4.239v28.652z" ></path>
  </symbol>
  <symbol  xmlns="http://www.w3.org/2000/svg" viewBox="0 0 119 33" id="netflix">
    <path fill-rule="evenodd" clip-rule="evenodd" d="M13.489 30.822c-.683.07-1.376.14-2.085.228L5.713 14.586v17.165a71.388 71.388 0 00-5.098.7V.984h4.742l6.462 17.864V.984h5.039v29.424c-1.114.183-2.227.297-3.37.414zM30.2 12.482c1.178-.028 2.329-.056 3.197-.056v4.904c-2.194 0-4.802 0-6.699.117v7.298c.924-.056 1.854-.117 2.787-.18 2.003-.132 4.025-.266 6.046-.346v4.73l-13.812 1.05V.984H35.53v4.904h-8.833v6.655c1.002 0 2.267-.03 3.502-.06zm18.67-6.535h5.157s0-4.962.06-4.962H38.732v4.962h5.157v22.652c1.6-.058 3.32-.058 4.98-.058V5.946zm13.279 6.247h6.817v4.904h-6.817v11.15h-4.92V.985h13.93v4.904h-9.01v6.305zm22.301 11.97c-1.714-.1-3.442-.2-5.17-.235V.984H74.3V28.54c4.565.117 9.01.35 13.457.642v-4.846c-1.095-.046-2.199-.11-3.308-.174zm9.199 5.477c1.068.063 2.153.128 3.238.242V.985h-4.92v28.548c.554.04 1.116.074 1.682.108zm18.71-13.71L118.701.983h-5.513l-3.498 8.231-3.26-8.231h-5.335l5.809 14.77-6.402 14.362a85.44 85.44 0 002.134.243c1.067.112 2.134.224 3.201.4l3.675-8.35 3.557 9.108c.664.102 1.322.212 1.976.32 1.216.203 2.423.404 3.656.556l-6.343-16.464z" ></path>
  </symbol>
</svg>